<svg xmlns="http://www.w3.org/2000/svg" xmlns:xlink="http://www.w3.org/1999/xlink" width="720" height="400" viewBox="0 0 720 400"><rect width="100%" height="100%" fill="#DDDDDD"/><path d="M142.99 164.93L191.44 164.93L191.44 170.12Q191.44 172.45 190.95 173.88Q190.47 175.31 189.98 176.28L189.98 176.28L163.41 230.99Q162.58 232.69 161.08 233.88Q159.57 235.07 157.05 235.07L157.05 235.07L148.37 235.07L175.48 181.47Q176.40 179.82 177.30 178.44Q178.20 177.06 179.31 175.80L179.31 175.80L145.75 175.80Q144.64 175.80 143.81 174.97Q142.99 174.15 142.99 173.03L142.99 173.03L142.99 164.93ZM224.32 223.91L242.31 223.91Q244.25 223.91 245.39 225.00Q246.53 226.09 246.53 227.89L246.53 227.89L246.53 235.07L198.42 235.07L198.42 231.09Q198.42 229.88 198.93 228.54Q199.44 227.21 200.56 226.14L200.56 226.14L221.85 204.80Q224.52 202.09 226.63 199.61Q228.73 197.14 230.14 194.71Q231.55 192.29 232.30 189.79Q233.05 187.29 233.05 184.53L233.05 184.53Q233.05 182.01 232.32 180.09Q231.60 178.17 230.26 176.87Q228.93 175.56 227.06 174.90Q225.19 174.25 222.87 174.25L222.87 174.25Q220.73 174.25 218.91 174.85Q217.09 175.46 215.69 176.55Q214.28 177.64 213.31 179.10Q212.34 180.55 211.86 182.30L211.86 182.30Q211.03 184.53 209.72 185.26Q208.41 185.98 205.94 185.60L205.94 185.60L199.63 184.48Q200.36 179.44 202.45 175.63Q204.53 171.82 207.66 169.28Q210.79 166.73 214.84 165.44Q218.89 164.16 223.55 164.16L223.55 164.16Q228.40 164.16 232.42 165.59Q236.45 167.02 239.31 169.64Q242.17 172.26 243.77 175.94Q245.37 179.63 245.37 184.14L245.37 184.14Q245.37 188.02 244.23 191.32Q243.09 194.62 241.17 197.62Q239.26 200.63 236.69 203.44Q234.12 206.26 231.31 209.17L231.31 209.17L215.49 225.32Q217.77 224.64 220.03 224.27Q222.28 223.91 224.32 223.91L224.32 223.91ZM304.83 200L304.83 200Q304.83 209.17 302.87 215.93Q300.90 222.70 297.43 227.11Q293.97 231.52 289.24 233.68Q284.51 235.84 279.03 235.84L279.03 235.84Q273.55 235.84 268.87 233.68Q264.19 231.52 260.74 227.11Q257.30 222.70 255.36 215.93Q253.42 209.17 253.42 200L253.42 200Q253.42 190.78 255.36 184.04Q257.30 177.30 260.74 172.89Q264.19 168.47 268.87 166.32Q273.55 164.16 279.03 164.16L279.03 164.16Q284.51 164.16 289.24 166.32Q293.97 168.47 297.43 172.89Q300.90 177.30 302.87 184.04Q304.83 190.78 304.83 200ZM292.46 200L292.46 200Q292.46 192.39 291.35 187.39Q290.23 182.39 288.37 179.44Q286.50 176.48 284.07 175.29Q281.65 174.10 279.03 174.10L279.03 174.10Q276.46 174.10 274.06 175.29Q271.66 176.48 269.81 179.44Q267.97 182.39 266.88 187.39Q265.79 192.39 265.79 200L265.79 200Q265.79 207.61 266.88 212.61Q267.97 217.61 269.81 220.56Q271.66 223.52 274.06 224.71Q276.46 225.90 279.03 225.90L279.03 225.90Q281.65 225.90 284.07 224.71Q286.50 223.52 288.37 220.56Q290.23 217.61 291.35 212.61Q292.46 207.61 292.46 200ZM381.85 219.01L375.50 225.27L359.05 208.83L342.47 225.37L336.11 219.11L352.70 202.47L336.89 186.66L343.19 180.36L359.01 196.17L374.72 180.45L381.12 186.76L365.36 202.52L381.85 219.01ZM423.85 208.63L445.19 208.63L445.19 185.69Q445.19 182.44 445.63 178.51L445.63 178.51L423.85 208.63ZM455.62 208.63L464.44 208.63L464.44 215.57Q464.44 216.54 463.81 217.24Q463.18 217.94 462.02 217.94L462.02 217.94L455.62 217.94L455.62 235.07L445.19 235.07L445.19 217.94L415.61 217.94Q414.39 217.94 413.47 217.19Q412.55 216.44 412.31 215.33L412.31 215.33L411.05 209.26L444.27 164.89L455.62 164.89L455.62 208.63ZM520.75 200L520.75 200Q520.75 209.17 518.79 215.93Q516.82 222.70 513.36 227.11Q509.89 231.52 505.16 233.68Q500.43 235.84 494.95 235.84L494.95 235.84Q489.47 235.84 484.79 233.68Q480.11 231.52 476.67 227.11Q473.22 222.70 471.28 215.93Q469.34 209.17 469.34 200L469.34 200Q469.34 190.78 471.28 184.04Q473.22 177.30 476.67 172.89Q480.11 168.47 484.79 166.32Q489.47 164.16 494.95 164.16L494.95 164.16Q500.43 164.16 505.16 166.32Q509.89 168.47 513.36 172.89Q516.82 177.30 518.79 184.04Q520.75 190.78 520.75 200ZM508.39 200L508.39 200Q508.39 192.39 507.27 187.39Q506.15 182.39 504.29 179.44Q502.42 176.48 500.00 175.29Q497.57 174.10 494.95 174.10L494.95 174.10Q492.38 174.10 489.98 175.29Q487.58 176.48 485.74 179.44Q483.89 182.39 482.80 187.39Q481.71 192.39 481.71 200L481.71 200Q481.71 207.61 482.80 212.61Q483.89 217.61 485.74 220.56Q487.58 223.52 489.98 224.71Q492.38 225.90 494.95 225.90L494.95 225.90Q497.57 225.90 500.00 224.71Q502.42 223.52 504.29 220.56Q506.15 217.61 507.27 212.61Q508.39 207.61 508.39 200ZM577.01 200L577.01 200Q577.01 209.17 575.05 215.93Q573.08 222.70 569.62 227.11Q566.15 231.52 561.42 233.68Q556.69 235.84 551.21 235.84L551.21 235.84Q545.73 235.84 541.05 233.68Q536.37 231.52 532.93 227.11Q529.48 222.70 527.54 215.93Q525.60 209.17 525.60 200L525.60 200Q525.60 190.78 527.54 184.04Q529.48 177.30 532.93 172.89Q536.37 168.47 541.05 166.32Q545.73 164.16 551.21 164.16L551.21 164.16Q556.69 164.16 561.42 166.32Q566.15 168.47 569.62 172.89Q573.08 177.30 575.05 184.04Q577.01 190.78 577.01 200ZM564.65 200L564.65 200Q564.65 192.39 563.53 187.39Q562.41 182.39 560.55 179.44Q558.68 176.48 556.26 175.29Q553.83 174.10 551.21 174.10L551.21 174.10Q548.64 174.10 546.24 175.29Q543.84 176.48 542.00 179.44Q540.15 182.39 539.06 187.39Q537.97 192.39 537.97 200L537.97 200Q537.97 207.61 539.06 212.61Q540.15 217.61 542.00 220.56Q543.84 223.52 546.24 224.71Q548.64 225.90 551.21 225.90L551.21 225.90Q553.83 225.90 556.26 224.71Q558.68 223.52 560.55 220.56Q562.41 217.61 563.53 212.61Q564.65 207.61 564.65 200Z" fill="#999999"/></svg>