<svg xmlns="http://www.w3.org/2000/svg" xmlns:xlink="http://www.w3.org/1999/xlink" width="862" height="470" viewBox="0 0 862 470"><rect width="100%" height="100%" fill="#DDDDDD"/><path d="M198.17 266.94L198.17 266.94Q201.74 266.94 204.43 265.92Q207.12 264.89 208.96 263.08Q210.81 261.27 211.74 258.75Q212.68 256.24 212.68 253.31L212.68 253.31Q212.68 246.35 208.82 242.78Q204.96 239.21 198.17 239.21L198.17 239.21Q191.38 239.21 187.52 242.78Q183.66 246.35 183.66 253.31L183.66 253.31Q183.66 256.24 184.60 258.75Q185.53 261.27 187.38 263.08Q189.22 264.89 191.91 265.92Q194.60 266.94 198.17 266.94ZM198.17 202.65L198.17 202.65Q194.95 202.65 192.61 203.64Q190.27 204.64 188.72 206.31Q187.17 207.97 186.44 210.14Q185.71 212.30 185.71 214.70L185.71 214.70Q185.71 217.22 186.32 219.59Q186.94 221.95 188.40 223.80Q189.86 225.64 192.26 226.75Q194.66 227.86 198.17 227.86L198.17 227.86Q201.68 227.86 204.08 226.75Q206.48 225.64 207.94 223.80Q209.40 221.95 210.02 219.59Q210.63 217.22 210.63 214.70L210.63 214.70Q210.63 212.30 209.87 210.14Q209.11 207.97 207.59 206.31Q206.07 204.64 203.73 203.64Q201.39 202.65 198.17 202.65ZM212.44 233.19L212.44 233.19Q220.17 235.70 223.85 240.88Q227.54 246.06 227.54 253.54L227.54 253.54Q227.54 259.16 225.40 263.72Q223.27 268.29 219.41 271.50Q215.54 274.72 210.13 276.48Q204.72 278.23 198.17 278.23L198.17 278.23Q191.62 278.23 186.21 276.48Q180.80 274.72 176.93 271.50Q173.07 268.29 170.94 263.72Q168.80 259.16 168.80 253.54L168.80 253.54Q168.80 246.06 172.49 240.88Q176.17 235.70 183.90 233.19L183.90 233.19Q177.75 230.61 174.68 225.87Q171.61 221.14 171.61 214.47L171.61 214.47Q171.61 209.67 173.57 205.52Q175.53 201.36 179.04 198.29Q182.55 195.22 187.44 193.49Q192.32 191.77 198.17 191.77L198.17 191.77Q204.02 191.77 208.90 193.49Q213.79 195.22 217.30 198.29Q220.81 201.36 222.77 205.52Q224.73 209.67 224.73 214.47L224.73 214.47Q224.73 221.14 221.66 225.87Q218.59 230.61 212.44 233.19ZM287.73 192.70L262.64 223.42L259.71 227.04Q262.17 225.82 265.01 225.14Q267.84 224.47 271.12 224.47L271.12 224.47Q275.92 224.47 280.45 226.05Q284.98 227.63 288.44 230.82Q291.89 234.01 293.99 238.74Q296.10 243.48 296.10 249.80L296.10 249.80Q296.10 255.71 293.93 260.89Q291.77 266.06 287.85 269.92Q283.93 273.79 278.40 276.01Q272.87 278.23 266.21 278.23L266.21 278.23Q259.42 278.23 254.04 276.07Q248.66 273.90 244.85 270.01Q241.05 266.12 239.03 260.65Q237.01 255.18 237.01 248.51L237.01 248.51Q237.01 242.55 239.44 236.26Q241.87 229.97 246.96 223.18L246.96 223.18L267.14 196.10Q268.19 194.69 270.21 193.70Q272.23 192.70 274.86 192.70L274.86 192.70L287.73 192.70ZM265.91 266.41L265.91 266.41Q269.36 266.41 272.26 265.24Q275.16 264.07 277.23 261.97Q279.31 259.86 280.48 257.03Q281.65 254.19 281.65 250.85L281.65 250.85Q281.65 247.23 280.54 244.33Q279.43 241.44 277.38 239.42Q275.33 237.40 272.47 236.35Q269.60 235.29 266.15 235.29L266.15 235.29Q262.70 235.29 259.89 236.46Q257.08 237.63 255.09 239.71Q253.10 241.79 251.99 244.62Q250.88 247.46 250.88 250.74L250.88 250.74Q250.88 254.25 251.84 257.14Q252.81 260.04 254.71 262.09Q256.61 264.13 259.42 265.27Q262.23 266.41 265.91 266.41ZM335.65 263.84L357.35 263.84Q359.69 263.84 361.06 265.16Q362.44 266.47 362.44 268.64L362.44 268.64L362.44 277.30L304.41 277.30L304.41 272.50Q304.41 271.04 305.02 269.43Q305.63 267.82 306.98 266.53L306.98 266.53L332.66 240.79Q335.88 237.52 338.42 234.53Q340.97 231.55 342.67 228.62Q344.36 225.70 345.27 222.69Q346.18 219.67 346.18 216.34L346.18 216.34Q346.18 213.30 345.30 210.99Q344.42 208.68 342.81 207.10Q341.20 205.52 338.95 204.73Q336.70 203.94 333.89 203.94L333.89 203.94Q331.32 203.94 329.12 204.67Q326.93 205.40 325.23 206.72Q323.54 208.03 322.37 209.79Q321.20 211.54 320.61 213.65L320.61 213.65Q319.62 216.34 318.04 217.22Q316.46 218.09 313.47 217.63L313.47 217.63L305.87 216.28Q306.75 210.20 309.26 205.60Q311.78 201.01 315.55 197.94Q319.32 194.87 324.21 193.32Q329.09 191.77 334.71 191.77L334.71 191.77Q340.56 191.77 345.41 193.49Q350.27 195.22 353.72 198.38Q357.17 201.54 359.10 205.98Q361.03 210.43 361.03 215.87L361.03 215.87Q361.03 220.55 359.66 224.53Q358.28 228.51 355.97 232.13Q353.66 235.76 350.56 239.15Q347.46 242.55 344.07 246.06L344.07 246.06L325.00 265.54Q327.75 264.72 330.47 264.28Q333.19 263.84 335.65 263.84L335.65 263.84ZM457.79 257.93L450.13 265.48L430.30 245.65L410.29 265.60L402.63 258.05L422.63 237.98L403.56 218.91L411.17 211.31L430.24 230.38L449.19 211.42L456.92 219.03L437.90 238.04L457.79 257.93ZM508.45 245.41L534.19 245.41L534.19 217.74Q534.19 213.82 534.72 209.08L534.72 209.08L508.45 245.41ZM546.77 245.41L557.42 245.41L557.42 253.78Q557.42 254.95 556.66 255.80Q555.90 256.64 554.49 256.64L554.49 256.64L546.77 256.64L546.77 277.30L534.19 277.30L534.19 256.64L498.51 256.64Q497.05 256.64 495.94 255.74Q494.82 254.83 494.53 253.49L494.53 253.49L493.01 246.17L533.08 192.65L546.77 192.65L546.77 245.41ZM565.84 192.70L624.28 192.70L624.28 198.96Q624.28 201.77 623.70 203.50Q623.11 205.22 622.53 206.39L622.53 206.39L590.47 272.38Q589.48 274.43 587.66 275.86Q585.85 277.30 582.81 277.30L582.81 277.30L572.34 277.30L605.04 212.65Q606.15 210.66 607.23 209.00Q608.31 207.33 609.66 205.81L609.66 205.81L569.18 205.81Q567.83 205.81 566.84 204.81Q565.84 203.82 565.84 202.47L565.84 202.47L565.84 192.70ZM693.20 235L693.20 235Q693.20 246.06 690.83 254.22Q688.46 262.38 684.28 267.70Q680.09 273.02 674.39 275.63Q668.69 278.23 662.08 278.23L662.08 278.23Q655.46 278.23 649.82 275.63Q644.17 273.02 640.02 267.70Q635.87 262.38 633.53 254.22Q631.19 246.06 631.19 235L631.19 235Q631.19 223.88 633.53 215.75Q635.87 207.62 640.02 202.30Q644.17 196.97 649.82 194.37Q655.46 191.77 662.08 191.77L662.08 191.77Q668.69 191.77 674.39 194.37Q680.09 196.97 684.28 202.30Q688.46 207.62 690.83 215.75Q693.20 223.88 693.20 235ZM678.28 235L678.28 235Q678.28 225.82 676.93 219.79Q675.59 213.76 673.34 210.20Q671.08 206.63 668.16 205.19Q665.23 203.76 662.08 203.76L662.08 203.76Q658.97 203.76 656.08 205.19Q653.18 206.63 650.96 210.20Q648.74 213.76 647.42 219.79Q646.10 225.82 646.10 235L646.10 235Q646.10 244.18 647.42 250.21Q648.74 256.24 650.96 259.80Q653.18 263.37 656.08 264.81Q658.97 266.24 662.08 266.24L662.08 266.24Q665.23 266.24 668.16 264.81Q671.08 263.37 673.34 259.80Q675.59 256.24 676.93 250.21Q678.28 244.18 678.28 235Z" fill="#999999"/></svg>