<svg xmlns="http://www.w3.org/2000/svg" xmlns:xlink="http://www.w3.org/1999/xlink" width="1080" height="1080" viewBox="0 0 1080 1080"><rect width="100%" height="100%" fill="#DDDDDD"/><path d="M249.17 571.47L264.38 571.47L264.38 582.30L217.58 582.30L217.58 571.47L234.72 571.47L234.72 522.16Q234.72 519.23 234.89 516.13L234.89 516.13L222.73 526.31Q221.67 527.13 220.65 527.33Q219.62 527.54 218.72 527.36Q217.81 527.19 217.11 526.75Q216.41 526.31 216.06 525.78L216.06 525.78L211.49 519.53L237.29 497.59L249.17 497.59L249.17 571.47ZM336.62 540L336.62 540Q336.62 551.06 334.26 559.22Q331.89 567.38 327.70 572.70Q323.52 578.03 317.82 580.63Q312.11 583.23 305.50 583.23L305.50 583.23Q298.89 583.23 293.25 580.63Q287.60 578.03 283.45 572.70Q279.29 567.38 276.95 559.22Q274.61 551.06 274.61 540L274.61 540Q274.61 528.89 276.95 520.75Q279.29 512.62 283.45 507.30Q287.60 501.98 293.25 499.37Q298.89 496.77 305.50 496.77L305.50 496.77Q312.11 496.77 317.82 499.37Q323.52 501.98 327.70 507.30Q331.89 512.62 334.26 520.75Q336.62 528.89 336.62 540ZM321.71 540L321.71 540Q321.71 530.82 320.36 524.79Q319.02 518.76 316.76 515.20Q314.51 511.63 311.59 510.19Q308.66 508.76 305.50 508.76L305.50 508.76Q302.40 508.76 299.51 510.19Q296.61 511.63 294.39 515.20Q292.16 518.76 290.85 524.79Q289.53 530.82 289.53 540L289.53 540Q289.53 549.18 290.85 555.21Q292.16 561.24 294.39 564.80Q296.61 568.37 299.51 569.81Q302.40 571.24 305.50 571.24L305.50 571.24Q308.66 571.24 311.59 569.81Q314.51 568.37 316.76 564.80Q319.02 561.24 320.36 555.21Q321.71 549.18 321.71 540ZM373.48 571.94L373.48 571.94Q377.05 571.94 379.74 570.92Q382.43 569.89 384.27 568.08Q386.12 566.27 387.05 563.75Q387.99 561.24 387.99 558.31L387.99 558.31Q387.99 551.35 384.13 547.78Q380.27 544.21 373.48 544.21L373.48 544.21Q366.69 544.21 362.83 547.78Q358.97 551.35 358.97 558.31L358.97 558.31Q358.97 561.24 359.91 563.75Q360.84 566.27 362.69 568.08Q364.53 569.89 367.22 570.92Q369.91 571.94 373.48 571.94ZM373.48 507.65L373.48 507.65Q370.26 507.65 367.92 508.64Q365.58 509.64 364.03 511.31Q362.48 512.97 361.75 515.14Q361.02 517.30 361.02 519.70L361.02 519.70Q361.02 522.22 361.63 524.59Q362.25 526.95 363.71 528.80Q365.17 530.64 367.57 531.75Q369.97 532.86 373.48 532.86L373.48 532.86Q376.99 532.86 379.39 531.75Q381.79 530.64 383.25 528.80Q384.71 526.95 385.33 524.59Q385.94 522.22 385.94 519.70L385.94 519.70Q385.94 517.30 385.18 515.14Q384.42 512.97 382.90 511.31Q381.38 509.64 379.04 508.64Q376.70 507.65 373.48 507.65ZM387.75 538.19L387.75 538.19Q395.48 540.70 399.16 545.88Q402.85 551.06 402.85 558.54L402.85 558.54Q402.85 564.16 400.71 568.72Q398.58 573.29 394.72 576.50Q390.85 579.72 385.44 581.48Q380.03 583.23 373.48 583.23L373.48 583.23Q366.93 583.23 361.52 581.48Q356.11 579.72 352.24 576.50Q348.38 573.29 346.25 568.72Q344.11 564.16 344.11 558.54L344.11 558.54Q344.11 551.06 347.80 545.88Q351.48 540.70 359.21 538.19L359.21 538.19Q353.06 535.61 349.99 530.87Q346.92 526.14 346.92 519.47L346.92 519.47Q346.92 514.67 348.88 510.52Q350.84 506.36 354.35 503.29Q357.86 500.22 362.75 498.49Q367.63 496.77 373.48 496.77L373.48 496.77Q379.33 496.77 384.21 498.49Q389.10 500.22 392.61 503.29Q396.12 506.36 398.08 510.52Q400.04 514.67 400.04 519.47L400.04 519.47Q400.04 526.14 396.97 530.87Q393.90 535.61 387.75 538.19ZM472.34 540L472.34 540Q472.34 551.06 469.98 559.22Q467.61 567.38 463.42 572.70Q459.24 578.03 453.54 580.63Q447.83 583.23 441.22 583.23L441.22 583.23Q434.61 583.23 428.97 580.63Q423.32 578.03 419.17 572.70Q415.01 567.38 412.67 559.22Q410.33 551.06 410.33 540L410.33 540Q410.33 528.89 412.67 520.75Q415.01 512.62 419.17 507.30Q423.32 501.98 428.97 499.37Q434.61 496.77 441.22 496.77L441.22 496.77Q447.83 496.77 453.54 499.37Q459.24 501.98 463.42 507.30Q467.61 512.62 469.98 520.75Q472.34 528.89 472.34 540ZM457.43 540L457.43 540Q457.43 530.82 456.08 524.79Q454.74 518.76 452.48 515.20Q450.23 511.63 447.31 510.19Q444.38 508.76 441.22 508.76L441.22 508.76Q438.12 508.76 435.23 510.19Q432.33 511.63 430.11 515.20Q427.88 518.76 426.57 524.79Q425.25 530.82 425.25 540L425.25 540Q425.25 549.18 426.57 555.21Q427.88 561.24 430.11 564.80Q432.33 568.37 435.23 569.81Q438.12 571.24 441.22 571.24L441.22 571.24Q444.38 571.24 447.31 569.81Q450.23 568.37 452.48 564.80Q454.74 561.24 456.08 555.21Q457.43 549.18 457.43 540ZM565.24 562.93L557.58 570.48L537.75 550.65L517.74 570.60L510.08 563.05L530.08 542.98L511.01 523.91L518.62 516.31L537.69 535.38L556.64 516.42L564.37 524.03L545.35 543.04L565.24 562.93ZM645.33 571.47L660.54 571.47L660.54 582.30L613.74 582.30L613.74 571.47L630.88 571.47L630.88 522.16Q630.88 519.23 631.06 516.13L631.06 516.13L618.89 526.31Q617.83 527.13 616.81 527.33Q615.79 527.54 614.88 527.36Q613.97 527.19 613.27 526.75Q612.57 526.31 612.22 525.78L612.22 525.78L607.66 519.53L633.45 497.59L645.33 497.59L645.33 571.47ZM732.79 540L732.79 540Q732.79 551.06 730.42 559.22Q728.05 567.38 723.87 572.70Q719.68 578.03 713.98 580.63Q708.28 583.23 701.66 583.23L701.66 583.23Q695.05 583.23 689.41 580.63Q683.76 578.03 679.61 572.70Q675.46 567.38 673.12 559.22Q670.78 551.06 670.78 540L670.78 540Q670.78 528.89 673.12 520.75Q675.46 512.62 679.61 507.30Q683.76 501.98 689.41 499.37Q695.05 496.77 701.66 496.77L701.66 496.77Q708.28 496.77 713.98 499.37Q719.68 501.98 723.87 507.30Q728.05 512.62 730.42 520.75Q732.79 528.89 732.79 540ZM717.87 540L717.87 540Q717.87 530.82 716.52 524.79Q715.18 518.76 712.93 515.20Q710.67 511.63 707.75 510.19Q704.82 508.76 701.66 508.76L701.66 508.76Q698.56 508.76 695.67 510.19Q692.77 511.63 690.55 515.20Q688.33 518.76 687.01 524.79Q685.69 530.82 685.69 540L685.69 540Q685.69 549.18 687.01 555.21Q688.33 561.24 690.55 564.80Q692.77 568.37 695.67 569.81Q698.56 571.24 701.66 571.24L701.66 571.24Q704.82 571.24 707.75 569.81Q710.67 568.37 712.93 564.80Q715.18 561.24 716.52 555.21Q717.87 549.18 717.87 540ZM769.64 571.94L769.64 571.94Q773.21 571.94 775.90 570.92Q778.59 569.89 780.44 568.08Q782.28 566.27 783.21 563.75Q784.15 561.24 784.15 558.31L784.15 558.31Q784.15 551.35 780.29 547.78Q776.43 544.21 769.64 544.21L769.64 544.21Q762.86 544.21 758.99 547.78Q755.13 551.35 755.13 558.31L755.13 558.31Q755.13 561.24 756.07 563.75Q757.01 566.27 758.85 568.08Q760.69 569.89 763.38 570.92Q766.07 571.94 769.64 571.94ZM769.64 507.65L769.64 507.65Q766.42 507.65 764.08 508.64Q761.74 509.64 760.19 511.31Q758.64 512.97 757.91 515.14Q757.18 517.30 757.18 519.70L757.18 519.70Q757.18 522.22 757.80 524.59Q758.41 526.95 759.87 528.80Q761.33 530.64 763.73 531.75Q766.13 532.86 769.64 532.86L769.64 532.86Q773.15 532.86 775.55 531.75Q777.95 530.64 779.41 528.80Q780.87 526.95 781.49 524.59Q782.10 522.22 782.10 519.70L782.10 519.70Q782.10 517.30 781.34 515.14Q780.58 512.97 779.06 511.31Q777.54 509.64 775.20 508.64Q772.86 507.65 769.64 507.65ZM783.92 538.19L783.92 538.19Q791.64 540.70 795.32 545.88Q799.01 551.06 799.01 558.54L799.01 558.54Q799.01 564.16 796.87 568.72Q794.74 573.29 790.88 576.50Q787.02 579.72 781.61 581.48Q776.19 583.23 769.64 583.23L769.64 583.23Q763.09 583.23 757.68 581.48Q752.27 579.72 748.41 576.50Q744.55 573.29 742.41 568.72Q740.27 564.16 740.27 558.54L740.27 558.54Q740.27 551.06 743.96 545.88Q747.65 540.70 755.37 538.19L755.37 538.19Q749.23 535.61 746.15 530.87Q743.08 526.14 743.08 519.47L743.08 519.47Q743.08 514.67 745.04 510.52Q747.00 506.36 750.51 503.29Q754.02 500.22 758.91 498.49Q763.79 496.77 769.64 496.77L769.64 496.77Q775.49 496.77 780.38 498.49Q785.26 500.22 788.77 503.29Q792.28 506.36 794.24 510.52Q796.20 514.67 796.20 519.47L796.20 519.47Q796.20 526.14 793.13 530.87Q790.06 535.61 783.92 538.19ZM868.51 540L868.51 540Q868.51 551.06 866.14 559.22Q863.77 567.38 859.59 572.70Q855.40 578.03 849.70 580.63Q844.00 583.23 837.38 583.23L837.38 583.23Q830.77 583.23 825.13 580.63Q819.48 578.03 815.33 572.70Q811.18 567.38 808.84 559.22Q806.50 551.06 806.50 540L806.50 540Q806.50 528.89 808.84 520.75Q811.18 512.62 815.33 507.30Q819.48 501.98 825.13 499.37Q830.77 496.77 837.38 496.77L837.38 496.77Q844.00 496.77 849.70 499.37Q855.40 501.98 859.59 507.30Q863.77 512.62 866.14 520.75Q868.51 528.89 868.51 540ZM853.59 540L853.59 540Q853.59 530.82 852.24 524.79Q850.90 518.76 848.65 515.20Q846.39 511.63 843.47 510.19Q840.54 508.76 837.38 508.76L837.38 508.76Q834.28 508.76 831.39 510.19Q828.49 511.63 826.27 515.20Q824.05 518.76 822.73 524.79Q821.41 530.82 821.41 540L821.41 540Q821.41 549.18 822.73 555.21Q824.05 561.24 826.27 564.80Q828.49 568.37 831.39 569.81Q834.28 571.24 837.38 571.24L837.38 571.24Q840.54 571.24 843.47 569.81Q846.39 568.37 848.65 564.80Q850.90 561.24 852.24 555.21Q853.59 549.18 853.59 540Z" fill="#999999"/></svg>