<svg xmlns="http://www.w3.org/2000/svg" xmlns:xlink="http://www.w3.org/1999/xlink" width="32" height="32" viewBox="0 0 32 32"><rect width="100%" height="100%" fill="#DDDDDD"/><path d="M5.03 14.96L4.57 14.88Q4.63 14.52 4.78 14.24Q4.93 13.97 5.15 13.78Q5.38 13.60 5.67 13.51Q5.96 13.41 6.30 13.41L6.30 13.41Q6.65 13.41 6.93 13.51Q7.21 13.61 7.41 13.79Q7.61 13.97 7.72 14.20Q7.82 14.44 7.82 14.72L7.82 14.72Q7.82 14.96 7.77 15.14Q7.72 15.33 7.61 15.46Q7.51 15.60 7.36 15.70Q7.21 15.79 7.02 15.85L7.02 15.85Q7.48 16.00 7.70 16.29Q7.93 16.58 7.93 17.03L7.93 17.03Q7.93 17.41 7.79 17.70Q7.65 17.99 7.41 18.19Q7.17 18.38 6.86 18.48Q6.54 18.59 6.19 18.59L6.19 18.59Q5.81 18.59 5.53 18.50Q5.24 18.41 5.03 18.24Q4.82 18.07 4.68 17.82Q4.53 17.57 4.43 17.25L4.43 17.25L4.81 17.09Q4.96 17.03 5.09 17.06Q5.22 17.09 5.28 17.20L5.28 17.20Q5.34 17.32 5.42 17.44Q5.49 17.56 5.60 17.65Q5.70 17.74 5.84 17.80Q5.99 17.86 6.18 17.86L6.18 17.86Q6.40 17.86 6.57 17.79Q6.73 17.71 6.84 17.60Q6.95 17.48 7.01 17.34Q7.06 17.20 7.06 17.06L7.06 17.06Q7.06 16.88 7.02 16.73Q6.98 16.58 6.86 16.47Q6.74 16.37 6.51 16.31Q6.28 16.25 5.90 16.25L5.90 16.25L5.90 15.63Q6.21 15.63 6.42 15.57Q6.63 15.52 6.76 15.42Q6.88 15.32 6.93 15.18Q6.98 15.04 6.98 14.87L6.98 14.87Q6.98 14.51 6.78 14.33Q6.58 14.14 6.25 14.14L6.25 14.14Q6.09 14.14 5.97 14.19Q5.84 14.23 5.73 14.31Q5.63 14.39 5.56 14.49Q5.49 14.60 5.45 14.72L5.45 14.72Q5.39 14.88 5.30 14.94Q5.20 14.99 5.03 14.96L5.03 14.96ZM10.39 17.73L11.69 17.73Q11.83 17.73 11.91 17.80Q11.99 17.88 11.99 18.01L11.99 18.01L11.99 18.53L8.52 18.53L8.52 18.24Q8.52 18.16 8.56 18.06Q8.59 17.96 8.67 17.89L8.67 17.89L10.21 16.35Q10.40 16.15 10.56 15.97Q10.71 15.79 10.81 15.62Q10.91 15.44 10.97 15.26Q11.02 15.08 11.02 14.88L11.02 14.88Q11.02 14.70 10.97 14.56Q10.91 14.43 10.82 14.33Q10.72 14.24 10.59 14.19Q10.45 14.14 10.28 14.14L10.28 14.14Q10.13 14.14 10.00 14.19Q9.87 14.23 9.77 14.31Q9.67 14.39 9.60 14.49Q9.53 14.60 9.49 14.72L9.49 14.72Q9.43 14.88 9.34 14.94Q9.24 14.99 9.06 14.96L9.06 14.96L8.61 14.88Q8.66 14.52 8.81 14.24Q8.96 13.97 9.19 13.78Q9.41 13.60 9.71 13.51Q10.00 13.41 10.33 13.41L10.33 13.41Q10.68 13.41 10.97 13.52Q11.26 13.62 11.47 13.81Q11.68 14.00 11.79 14.26Q11.91 14.53 11.91 14.86L11.91 14.86Q11.91 15.14 11.83 15.37Q11.74 15.61 11.61 15.83Q11.47 16.05 11.28 16.25Q11.10 16.45 10.89 16.66L10.89 16.66L9.75 17.83Q9.92 17.78 10.08 17.75Q10.24 17.73 10.39 17.73L10.39 17.73ZM17.70 17.37L17.24 17.82L16.05 16.64L14.86 17.83L14.40 17.38L15.59 16.18L14.45 15.04L14.91 14.58L16.05 15.72L17.18 14.59L17.65 15.04L16.51 16.18L17.70 17.37ZM20.61 14.96L20.15 14.88Q20.21 14.52 20.36 14.24Q20.51 13.97 20.73 13.78Q20.96 13.60 21.25 13.51Q21.54 13.41 21.88 13.41L21.88 13.41Q22.23 13.41 22.51 13.51Q22.79 13.61 22.99 13.79Q23.19 13.97 23.30 14.20Q23.41 14.44 23.41 14.72L23.41 14.72Q23.41 14.96 23.35 15.14Q23.30 15.33 23.20 15.46Q23.09 15.60 22.94 15.70Q22.79 15.79 22.60 15.85L22.60 15.85Q23.06 16.00 23.28 16.29Q23.51 16.58 23.51 17.03L23.51 17.03Q23.51 17.41 23.37 17.70Q23.23 17.99 22.99 18.19Q22.75 18.38 22.44 18.48Q22.13 18.59 21.78 18.59L21.78 18.59Q21.39 18.59 21.11 18.50Q20.83 18.41 20.62 18.24Q20.41 18.07 20.26 17.82Q20.11 17.57 20.01 17.25L20.01 17.25L20.39 17.09Q20.54 17.03 20.67 17.06Q20.80 17.09 20.86 17.20L20.86 17.20Q20.92 17.32 21.00 17.44Q21.08 17.56 21.18 17.65Q21.29 17.74 21.43 17.80Q21.57 17.86 21.76 17.86L21.76 17.86Q21.99 17.86 22.15 17.79Q22.31 17.71 22.42 17.60Q22.53 17.48 22.59 17.34Q22.64 17.20 22.64 17.06L22.64 17.06Q22.64 16.88 22.60 16.73Q22.57 16.58 22.44 16.47Q22.32 16.37 22.09 16.31Q21.86 16.25 21.48 16.25L21.48 16.25L21.48 15.63Q21.80 15.63 22.01 15.57Q22.22 15.52 22.34 15.42Q22.46 15.32 22.51 15.18Q22.56 15.04 22.56 14.87L22.56 14.87Q22.56 14.51 22.36 14.33Q22.16 14.14 21.83 14.14L21.83 14.14Q21.68 14.14 21.55 14.19Q21.42 14.23 21.31 14.31Q21.21 14.39 21.14 14.49Q21.07 14.60 21.04 14.72L21.04 14.72Q20.98 14.88 20.88 14.94Q20.78 14.99 20.61 14.96L20.61 14.96ZM25.97 17.73L27.27 17.73Q27.41 17.73 27.49 17.80Q27.57 17.88 27.57 18.01L27.57 18.01L27.57 18.53L24.10 18.53L24.10 18.24Q24.10 18.16 24.14 18.06Q24.18 17.96 24.26 17.89L24.26 17.89L25.79 16.35Q25.99 16.15 26.14 15.97Q26.29 15.79 26.39 15.62Q26.49 15.44 26.55 15.26Q26.60 15.08 26.60 14.88L26.60 14.88Q26.60 14.70 26.55 14.56Q26.50 14.43 26.40 14.33Q26.30 14.24 26.17 14.19Q26.03 14.14 25.87 14.14L25.87 14.14Q25.71 14.14 25.58 14.19Q25.45 14.23 25.35 14.31Q25.25 14.39 25.18 14.49Q25.11 14.60 25.07 14.72L25.07 14.72Q25.01 14.88 24.92 14.94Q24.82 14.99 24.64 14.96L24.64 14.96L24.19 14.88Q24.24 14.52 24.39 14.24Q24.54 13.97 24.77 13.78Q25.00 13.60 25.29 13.51Q25.58 13.41 25.92 13.41L25.92 13.41Q26.27 13.41 26.56 13.52Q26.85 13.62 27.05 13.81Q27.26 14.00 27.38 14.26Q27.49 14.53 27.49 14.86L27.49 14.86Q27.49 15.14 27.41 15.37Q27.33 15.61 27.19 15.83Q27.05 16.05 26.86 16.25Q26.68 16.45 26.48 16.66L26.48 16.66L25.33 17.83Q25.50 17.78 25.66 17.75Q25.82 17.73 25.97 17.73L25.97 17.73Z" fill="#999999"/></svg>